# xmcd CD database file
#
# Track frame offsets:
#	150
#	16460
#	38120
#	56430
#	83473
#	102565
#	126485
#	143735
#	163628
#	182065
#	211525
#	248660
#	267610
#
# Disc length: 3952 seconds
#
# Revision: 3
# Processed by: cddbd v1.5.2PL0 Copyright (c) Steve Scherf et al.
# Submitted via: CDex 1.51
#
DISCID=ae0f6e0d
DTITLE=Champion Jack Dupree - President Reagan
DYEAR=1986
DGENRE=Blues
TTITLE0=Hamhark And Limer Beans
TTITLE1=Let Me In I Am Drunk
TTITLE2=Somebody's Done Changed The Lock
TTITLE3=My Real Combination For Love
TTITLE4=Walkin' The Road
TTITLE5=Phone Call
TTITLE6=(Tell Me)  Who Do You Love
TTITLE7=Let's Try Over Again
TTITLE8=Feel Like Rockin'
TTITLE9=Let's Talk It Over One More Time
TTITLE10=President Reagan
TTITLE11=Ain't Gonna Be A Low Down Dog No More
TTITLE12=I've Lost A Good Man
EXTD=YEAR: 1986
EXTT0=
EXTT1=
EXTT2=
EXTT3=
EXTT4=
EXTT5=
EXTT6=
EXTT7=
EXTT8=
EXTT9=
EXTT10=
EXTT11=
EXTT12=
PLAYORDER=
